# xmcd CD database file
#
# Track frame offsets:
#	150
#	122214
#	149853
#	238377
#
# Disc length: 3286 seconds
#
# Revision: 0
# Processed by: cddbd v1.5.1PL2 Copyright (c) Steve Scherf et al.
# Submitted via: CDex 1.51
#
DISCID=420cd404
DTITLE=Savin Bryars - "Jesus blood never failed me yet"
DYEAR=1900
DGENRE=Blues
TTITLE0=Tramp with Orchestra (Quartett)
TTITLE1=Tramp with Orchestra (full Storys)
TTITLE2=Tramp with Tom Waits (full Orchestra)
TTITLE3=Coda_Tom Waits and high storys
EXTD=
EXTT0=
EXTT1=
EXTT2=
EXTT3=
PLAYORDER=
